# xmcd CD database file
#
# Track frame offsets:
#	150
#	15276
#	25324
#	45293
#	62784
#	92029
#	113234
#	128144
#	146674
#	157214
#	166512
#	184369
#	212449
#	228220
#
# Disc length: 3217 seconds
#
# Revision: 0
# Processed by: cddbd v1.5PL3 Copyright (c) Steve Scherf et al.
# Submitted via: CDex 1.51
#
DISCID=b00c8f0e
DTITLE=小松亮太 - The Best
DYEAR=2004
DGENRE=Tango
TTITLE0=ラ・クンパルシータ
TTITLE1=軍靴の響き
TTITLE2=メリディオナル
TTITLE3=ブエノスアイレスの夏
TTITLE4=ミロンガ・フォー・スリー
TTITLE5=来るべきもの
TTITLE6=リベルタンゴ
TTITLE7=恋人もなく
TTITLE8=ポル・ウナ・カベーサ
TTITLE9=ラ・トランペーラ
TTITLE10=赤と黒
TTITLE11=アディオス・ノニーノ
TTITLE12=スターネオン
TTITLE13=愛は私達より強く
EXTD=YEAR: 2004
EXTT0=
EXTT1=
EXTT2=
EXTT3=
EXTT4=
EXTT5=
EXTT6=
EXTT7=
EXTT8=
EXTT9=
EXTT10=
EXTT11=
EXTT12=
EXTT13=
PLAYORDER=
